# xmcd
#
# Track frame offsets:
#	150
#	42942
#	73144
#	128392
#	209282
#
# Disc length: 3430 seconds
#
# Revision: 0
# Processed by: cddbd v1.5.2PL0 Copyright (c) Steve Scherf et al.
# Submitted via: audiograbber 1.83.01
#
DISCID=410d6405
DTITLE=Grateful Dead - 93-06-26 Robert F Kennedy Stadium, Washington DC
DYEAR=1900
DGENRE=
TTITLE0=Iko Iko
TTITLE1=Long Way To Go Home
TTITLE2=Playing In The Band
TTITLE3=Terrapin Station
TTITLE4=Drums
EXTD=
EXTT0=
EXTT1=
EXTT2=
EXTT3=
EXTT4=
PLAYORDER=
